<svg width="18" height="18" viewBox="0 0 18 18" fill="none" xmlns="http://www.w3.org/2000/svg">
<mask id="mask0_48_579" style="mask-type:alpha" maskUnits="userSpaceOnUse" x="1" y="0" width="16" height="18">
<path fill-rule="evenodd" clip-rule="evenodd" d="M16.4437 3.94232C16.7688 4.29991 16.7688 4.846 16.4437 5.20359L13.4437 8.50359C13.0954 8.8867 12.5025 8.91494 12.1194 8.56665C11.7363 8.21836 11.708 7.62544 12.0563 7.24232L13.6307 5.51046L2.25 5.51046C1.73223 5.51046 1.3125 5.09072 1.3125 4.57296C1.3125 4.05519 1.73223 3.63546 2.25 3.63546L13.6307 3.63546L12.0563 1.90359C11.708 1.52047 11.7363 0.92755 12.1194 0.579262C12.5025 0.230974 13.0954 0.259209 13.4437 0.642325L16.4437 3.94232ZM16.6875 13.4271C16.6875 13.9448 16.2678 14.3646 15.75 14.3646L4.36927 14.3646L5.94369 16.0964C6.29198 16.4795 6.26375 17.0725 5.88063 17.4207C5.49751 17.769 4.90459 17.7408 4.55631 17.3577L1.55631 14.0577C1.23123 13.7001 1.23123 13.154 1.55631 12.7964L4.55631 9.49643C4.90459 9.11331 5.49751 9.08507 5.88063 9.43336C6.26375 9.78165 6.29198 10.3746 5.94369 10.7577L4.36927 12.4896L15.75 12.4896C16.2678 12.4896 16.6875 12.9093 16.6875 13.4271Z" fill="#006FFD"/>
</mask>
<g mask="url(#mask0_48_579)">
<rect x="18" y="0.00292969" width="18" height="18" transform="rotate(90 18 0.00292969)" fill="#006FFD"/>
</g>
</svg>
