<svg width="43" height="12" viewBox="0 0 43 12" fill="none" xmlns="http://www.w3.org/2000/svg">
<path d="M3.312 6.744H4.92V11.232H3.312V6.744ZM8.196 0.456H9.78V11.568H8.196V0.456ZM0.636 7.668L0.456 6.372C2.568 6.372 5.232 6.384 7.596 6.096L7.668 7.26C5.22 7.668 2.712 7.68 0.636 7.668ZM1.416 3.972H6.912V5.244H1.416V3.972ZM1.416 1.044H6.792V2.304H3.012V4.824H1.416V1.044ZM11.5311 9.048H21.5871V10.344H11.5311V9.048ZM15.7431 6.948H17.3391V9.576H15.7431V6.948ZM12.6591 1.176H20.4591V4.872H14.2671V6.744H12.6831V3.624H18.8751V2.436H12.6591V1.176ZM12.6831 6.108H20.7111V7.392H12.6831V6.108ZM29.6621 0.443999H31.2701V11.556H29.6621V0.443999ZM30.8501 4.692H32.8061V6H30.8501V4.692ZM26.7461 1.596H28.3061C28.3061 4.932 27.0341 7.788 23.3381 9.648L22.4501 8.436C25.3661 6.924 26.7461 4.884 26.7461 1.872V1.596ZM23.0621 1.596H27.5621V2.88H23.0621V1.596ZM41.2532 0.456H42.8612V11.568H41.2532V0.456ZM37.9772 1.608H39.5612C39.5612 5.004 38.4092 7.788 34.4612 9.696L33.6332 8.424C36.8252 6.888 37.9772 4.872 37.9772 1.896V1.608ZM34.2212 1.608H38.7332V2.868H34.2212V1.608Z" fill="#006FFD"/>
</svg>
