<svg width="19" height="19" viewBox="0 0 19 19" fill="none" xmlns="http://www.w3.org/2000/svg">
<mask id="mask0_51_629" style="mask-type:alpha" maskUnits="userSpaceOnUse" x="0" y="0" width="19" height="19">
<path fill-rule="evenodd" clip-rule="evenodd" d="M7.63174 0.395844C3.63837 0.395844 0.395508 3.60731 0.395508 7.57573C0.395508 11.5442 3.63837 14.7556 7.63174 14.7556C9.12056 14.7556 10.5055 14.3091 11.6565 13.5434L16.3773 18.2253C16.8866 18.7305 17.7111 18.7305 18.2205 18.2253C18.7316 17.7183 18.7316 16.895 18.2205 16.3881L13.5299 11.7362C14.3722 10.5627 14.868 9.12631 14.868 7.57573C14.868 3.60731 11.6251 0.395844 7.63174 0.395844ZM3.00543 7.57573C3.00543 5.04662 5.07361 2.99079 7.63174 2.99079C10.1899 2.99079 12.258 5.04662 12.258 7.57573C12.258 10.1048 10.1899 12.1607 7.63174 12.1607C5.07361 12.1607 3.00543 10.1048 3.00543 7.57573Z" fill="#006FFD"/>
</mask>
<g mask="url(#mask0_51_629)">
<rect width="19" height="19" fill="#006FFD"/>
</g>
</svg>
