<svg width="145" height="45" viewBox="0 0 145 45" fill="none" xmlns="http://www.w3.org/2000/svg">
<path d="M45 0.5C20.5902 0.5 0.770785 20.1537 0.502751 44.5H122.5C134.65 44.5 144.5 34.6503 144.5 22.5C144.5 10.3497 134.65 0.5 122.5 0.5H45Z" fill="#0022FF" stroke="white"/>
<path d="M21.771 11.141H22.709V17.623H21.771V11.141ZM22.499 13.556H23.647V14.326H22.499V13.556ZM17.823 11.652H18.747V13.227H20.049V11.652H20.973V16.125H17.823V11.652ZM18.747 13.948V15.376H20.049V13.948H18.747ZM24.0734 16.153H29.9394V16.909H24.0734V16.153ZM26.5304 14.928H27.4614V16.461H26.5304V14.928ZM24.7314 11.561H29.2814V13.717H25.6694V14.809H24.7454V12.989H28.3574V12.296H24.7314V11.561ZM24.7454 14.438H29.4284V15.187H24.7454V14.438ZM33.8942 14.809H34.8322V17.427H33.8942V14.809ZM36.7432 11.141H37.6672V17.623H36.7432V11.141ZM32.3332 15.348L32.2282 14.592C33.4602 14.592 35.0142 14.599 36.3932 14.431L36.4352 15.11C35.0072 15.348 33.5442 15.355 32.3332 15.348ZM32.7882 13.192H35.9942V13.934H32.7882V13.192ZM32.7882 11.484H35.9242V12.219H33.7192V13.689H32.7882V11.484ZM41.2716 13.528H42.3356V14.277H41.2716V13.528ZM43.3646 11.141H44.2536V17.623H43.3646V11.141ZM42.0416 11.239H42.9166V17.329H42.0416V11.239ZM40.1376 11.596C40.9986 11.596 41.5516 12.485 41.5516 13.948C41.5516 15.418 40.9986 16.307 40.1376 16.307C39.2836 16.307 38.7376 15.418 38.7376 13.948C38.7376 12.485 39.2836 11.596 40.1376 11.596ZM40.1376 12.471C39.7876 12.471 39.5846 12.961 39.5846 13.948C39.5846 14.942 39.7876 15.425 40.1376 15.425C40.5016 15.425 40.7046 14.942 40.7046 13.948C40.7046 12.961 40.5016 12.471 40.1376 12.471ZM48.3134 12.163H49.0484V12.891C49.0484 14.354 48.4324 15.845 47.2424 16.405L46.7174 15.67C47.7884 15.166 48.3134 13.955 48.3134 12.891V12.163ZM48.5094 12.163H49.2444V12.891C49.2444 13.871 49.7484 15.019 50.8124 15.509L50.3014 16.244C49.1114 15.691 48.5094 14.27 48.5094 12.891V12.163ZM46.9694 11.764H50.5254V12.527H46.9694V11.764ZM51.0014 11.141H51.9394V17.623H51.0014V11.141ZM51.7294 13.612H52.8774V14.382H51.7294V13.612ZM53.4299 11.666H56.8879V12.415H53.4299V11.666ZM53.3599 15.054L53.2619 14.305C54.3609 14.298 55.8659 14.284 57.1119 14.123L57.1749 14.802C55.9009 15.026 54.4309 15.054 53.3599 15.054ZM53.9409 12.24H54.8369V14.445H53.9409V12.24ZM55.4879 12.24H56.3769V14.445H55.4879V12.24ZM57.4689 11.148H58.3999V15.922H57.4689V11.148ZM58.1339 12.968H59.2609V13.738H58.1339V12.968ZM54.2209 16.769H58.6309V17.511H54.2209V16.769ZM54.2209 15.474H55.1519V16.965H54.2209V15.474ZM64.2023 11.141H65.1403V17.623H64.2023V11.141ZM62.2913 11.813H63.2153C63.2153 13.794 62.5433 15.418 60.2403 16.531L59.7573 15.789C61.6193 14.893 62.2913 13.717 62.2913 11.981V11.813ZM60.1003 11.813H62.7323V12.548H60.1003V11.813ZM67.6318 14.424H68.5628V15.957H67.6318V14.424ZM68.0868 11.519C69.0878 11.519 69.8508 12.184 69.8508 13.115C69.8508 14.046 69.0878 14.711 68.0868 14.711C67.0788 14.711 66.3228 14.046 66.3228 13.115C66.3228 12.184 67.0788 11.519 68.0868 11.519ZM68.0868 12.31C67.5968 12.31 67.2328 12.604 67.2328 13.115C67.2328 13.619 67.5968 13.92 68.0868 13.92C68.5768 13.92 68.9408 13.619 68.9408 13.115C68.9408 12.604 68.5768 12.31 68.0868 12.31ZM70.3618 11.141H71.2928V17.623H70.3618V11.141ZM71.0058 13.675H72.1468V14.452H71.0058V13.675ZM66.2178 16.335L66.1058 15.586C67.2258 15.579 68.7378 15.586 70.0258 15.411L70.0958 16.09C68.7518 16.342 67.3098 16.342 66.2178 16.335ZM75.8496 14.977H76.7806V16.027H75.8496V14.977ZM78.5726 11.141H79.5106V17.623H78.5726V11.141ZM79.1816 13.773H80.3226V14.543H79.1816V13.773ZM74.3936 16.545L74.2816 15.796C75.4016 15.796 76.9416 15.789 78.2506 15.607L78.3206 16.279C76.9556 16.545 75.4856 16.545 74.3936 16.545ZM74.4006 11.855H78.2156V12.583H74.4006V11.855ZM76.3186 12.842C77.2426 12.842 77.9006 13.332 77.9006 14.053C77.9006 14.781 77.2426 15.271 76.3186 15.271C75.3876 15.271 74.7366 14.781 74.7366 14.053C74.7366 13.332 75.3876 12.842 76.3186 12.842ZM76.3186 13.542C75.8916 13.542 75.6186 13.724 75.6186 14.053C75.6186 14.389 75.8916 14.571 76.3186 14.571C76.7386 14.571 77.0186 14.389 77.0186 14.053C77.0186 13.724 76.7386 13.542 76.3186 13.542ZM75.8496 11.176H76.7806V12.401H75.8496V11.176ZM82.233 11.862H82.996V12.268C82.996 13.507 82.415 14.62 81.162 15.033L80.7 14.298C81.778 13.941 82.233 13.094 82.233 12.268V11.862ZM82.422 11.862H83.178V12.268C83.178 13.024 83.612 13.766 84.655 14.081L84.214 14.809C82.982 14.438 82.422 13.423 82.422 12.268V11.862ZM80.945 11.575H84.445V12.317H80.945V11.575ZM84.963 11.141H85.894V14.984H84.963V11.141ZM85.635 12.632H86.755V13.395H85.635V12.632ZM83.78 15.103C85.124 15.103 85.971 15.572 85.971 16.363C85.971 17.154 85.124 17.623 83.78 17.623C82.429 17.623 81.582 17.154 81.582 16.363C81.582 15.572 82.429 15.103 83.78 15.103ZM83.78 15.831C82.954 15.831 82.506 15.999 82.506 16.363C82.506 16.727 82.954 16.909 83.78 16.909C84.606 16.909 85.047 16.727 85.047 16.363C85.047 15.999 84.606 15.831 83.78 15.831ZM91.6825 11.141H92.6205V14.417H91.6825V11.141ZM88.2945 14.704H92.6205V16.461H89.2185V17.112H88.3085V15.789H91.6965V15.411H88.2945V14.704ZM88.3085 16.86H92.7815V17.581H88.3085V16.86ZM88.7495 11.288H89.5195V11.778C89.5195 12.975 88.9175 14.06 87.6505 14.445L87.2025 13.71C88.2875 13.381 88.7495 12.569 88.7495 11.778V11.288ZM88.9385 11.288H89.7015V11.778C89.7015 12.548 90.1565 13.304 91.2135 13.605L90.7655 14.326C89.5195 13.962 88.9385 12.947 88.9385 11.778V11.288ZM98.1149 11.134H99.0529V17.637H98.1149V11.134ZM95.5599 11.589C96.5399 11.589 97.2609 12.485 97.2609 13.899C97.2609 15.327 96.5399 16.223 95.5599 16.223C94.5799 16.223 93.8589 15.327 93.8589 13.899C93.8589 12.485 94.5799 11.589 95.5599 11.589ZM95.5599 12.436C95.0769 12.436 94.7479 12.947 94.7479 13.899C94.7479 14.865 95.0769 15.383 95.5599 15.383C96.0429 15.383 96.3649 14.865 96.3649 13.899C96.3649 12.947 96.0429 12.436 95.5599 12.436ZM103.946 11.4C104.933 11.4 105.647 11.967 105.647 12.786C105.647 13.591 104.933 14.172 103.946 14.172C102.966 14.172 102.252 13.591 102.252 12.786C102.252 11.967 102.966 11.4 103.946 11.4ZM103.946 12.156C103.477 12.156 103.141 12.38 103.141 12.786C103.141 13.185 103.477 13.409 103.946 13.409C104.422 13.409 104.758 13.185 104.758 12.786C104.758 12.38 104.422 12.156 103.946 12.156ZM103.512 14.816H104.443V17.427H103.512V14.816ZM106.347 11.141H107.271V17.623H106.347V11.141ZM101.979 15.306L101.867 14.55C103.001 14.55 104.604 14.536 105.976 14.326L106.039 15.005C104.632 15.285 103.099 15.299 101.979 15.306ZM112.737 11.141H113.675V17.623H112.737V11.141ZM109.881 12.821H110.616V13.157C110.616 14.529 110.007 15.908 108.81 16.426L108.313 15.712C109.377 15.236 109.881 14.137 109.881 13.157V12.821ZM110.084 12.821H110.812V13.157C110.812 14.088 111.323 15.152 112.394 15.607L111.897 16.321C110.7 15.824 110.084 14.487 110.084 13.157V12.821ZM108.53 12.198H112.135V12.933H108.53V12.198ZM109.881 11.288H110.812V12.576H109.881V11.288ZM114.718 12.114H117.819V12.856H114.718V12.114ZM116.279 13.143C117.105 13.143 117.7 13.78 117.7 14.69C117.7 15.593 117.105 16.23 116.279 16.23C115.46 16.23 114.858 15.593 114.858 14.69C114.858 13.78 115.46 13.143 116.279 13.143ZM116.279 13.92C115.929 13.92 115.684 14.2 115.684 14.69C115.684 15.18 115.929 15.453 116.279 15.453C116.629 15.453 116.881 15.18 116.881 14.69C116.881 14.2 116.629 13.92 116.279 13.92ZM119.408 11.141H120.297V17.623H119.408V11.141ZM118.631 13.773H119.702V14.522H118.631V13.773ZM118.05 11.26H118.918V17.35H118.05V11.26ZM115.824 11.316H116.741V12.583H115.824V11.316ZM124.356 15.075H125.056V15.292C125.056 16.272 124.622 17.168 123.607 17.532L123.152 16.853C123.999 16.566 124.356 15.922 124.356 15.292V15.075ZM124.594 15.075H125.259V15.292C125.259 15.922 125.574 16.58 126.365 16.909L125.994 17.595C124.965 17.21 124.594 16.244 124.594 15.292V15.075ZM126.722 15.075H127.387V15.292C127.387 16.188 127.002 17.196 125.994 17.595L125.609 16.909C126.4 16.552 126.722 15.866 126.722 15.292V15.075ZM126.939 15.075H127.639V15.292C127.639 15.964 127.989 16.587 128.843 16.853L128.388 17.532C127.359 17.182 126.939 16.314 126.939 15.292V15.075ZM127.352 11.148H128.29V14.809H127.352V11.148ZM124.762 11.477C125.77 11.477 126.519 12.121 126.519 13.031C126.519 13.934 125.77 14.578 124.762 14.578C123.754 14.578 122.998 13.934 122.998 13.031C122.998 12.121 123.754 11.477 124.762 11.477ZM124.762 12.247C124.272 12.247 123.908 12.534 123.908 13.031C123.908 13.521 124.272 13.808 124.762 13.808C125.252 13.808 125.609 13.521 125.609 13.031C125.609 12.534 125.252 12.247 124.762 12.247ZM131.118 11.589C132.084 11.589 132.791 12.485 132.791 13.899C132.791 15.327 132.084 16.223 131.118 16.223C130.145 16.223 129.445 15.327 129.445 13.899C129.445 12.485 130.145 11.589 131.118 11.589ZM131.118 12.436C130.649 12.436 130.334 12.947 130.334 13.899C130.334 14.865 130.649 15.383 131.118 15.383C131.594 15.383 131.902 14.865 131.902 13.899C131.902 12.947 131.594 12.436 131.118 12.436ZM133.855 11.134H134.779V17.637H133.855V11.134ZM132.518 13.472H134.247V14.221H132.518V13.472ZM137.018 16.304L136.986 16.5774C136.963 16.7862 136.921 16.9983 136.862 17.2138C136.804 17.4309 136.742 17.6306 136.678 17.8129C136.613 17.9951 136.561 18.1385 136.521 18.2429H135.914C135.938 18.1418 135.969 18.0043 136.009 17.8303C136.05 17.6563 136.09 17.4607 136.128 17.2436C136.166 17.0265 136.192 16.8061 136.205 16.5824L136.223 16.304H137.018ZM17.424 21.141H18.355V24.361H17.424V21.141ZM17.984 22.492H19.216V23.255H17.984V22.492ZM13.441 21.54H16.528V24.249H13.441V21.54ZM15.611 22.268H14.358V23.521H15.611V22.268ZM13.826 26.713H14.183C14.75 26.713 15.247 26.671 15.723 26.51L15.863 27.238C15.324 27.427 14.82 27.455 14.183 27.455H13.826V26.713ZM13.826 24.914H14.729V26.895H13.826V24.914ZM15.632 24.977H18.873V25.635H15.632V24.977ZM17.256 25.803C17.991 25.803 18.502 26.16 18.502 26.713C18.502 27.273 17.991 27.623 17.256 27.623C16.514 27.623 16.003 27.273 16.003 26.713C16.003 26.16 16.514 25.803 17.256 25.803ZM17.256 26.433C17.004 26.433 16.829 26.524 16.829 26.713C16.829 26.909 17.004 27 17.256 27C17.494 27 17.676 26.909 17.676 26.713C17.676 26.524 17.494 26.433 17.256 26.433ZM16.808 24.515H17.711V25.46H16.808V24.515ZM19.6914 24.445H25.5504V25.187H19.6914V24.445ZM20.3984 26.769H24.8924V27.511H20.3984V26.769ZM20.3984 25.621H21.3294V27.007H20.3984V25.621ZM22.6244 21.33C24.0314 21.33 24.9694 21.841 24.9694 22.667C24.9694 23.493 24.0314 24.004 22.6244 24.004C21.2104 24.004 20.2794 23.493 20.2794 22.667C20.2794 21.841 21.2104 21.33 22.6244 21.33ZM22.6244 22.072C21.7494 22.072 21.2384 22.275 21.2384 22.667C21.2384 23.066 21.7494 23.262 22.6244 23.262C23.4994 23.262 24.0104 23.066 24.0104 22.667C24.0104 22.275 23.4994 22.072 22.6244 22.072ZM29.3232 21.638H30.0792V22.583C30.0792 24.186 29.5192 25.691 28.2942 26.293L27.7342 25.544C28.8262 25.033 29.3232 23.787 29.3232 22.583V21.638ZM29.5122 21.638H30.2542V22.583C30.2542 23.745 30.7162 24.928 31.7522 25.432L31.1922 26.174C30.0232 25.579 29.5122 24.137 29.5122 22.583V21.638ZM32.0112 21.141H32.9492V27.623H32.0112V21.141ZM32.7392 23.633H33.8872V24.41H32.7392V23.633ZM38.4786 21.148H39.4096V24.991H38.4786V21.148ZM39.1436 22.667H40.2706V23.437H39.1436V22.667ZM35.1886 25.271H39.4096V27.553H35.1886V25.271ZM38.4996 25.999H36.1056V26.818H38.4996V25.999ZM34.5376 24.011H35.0836C36.3576 24.011 37.1416 23.99 38.0376 23.822L38.1216 24.557C37.2116 24.732 36.3926 24.767 35.0836 24.767H34.5376V24.011ZM34.5306 21.463H37.4916V23.437H35.4616V24.424H34.5376V22.744H36.5746V22.205H34.5306V21.463ZM40.7531 23.654H46.6191V24.389H40.7531V23.654ZM41.4741 22.576H45.9261V23.304H41.4741V22.576ZM41.4741 21.26H45.8701V22.002H42.3981V23.206H41.4741V21.26ZM41.4181 24.753H45.8981V26.468H42.3421V27.028H41.4251V25.81H44.9811V25.453H41.4181V24.753ZM41.4251 26.86H46.0661V27.574H41.4251V26.86ZM51.6305 21.134H52.5685V27.637H51.6305V21.134ZM49.0755 21.589C50.0555 21.589 50.7765 22.485 50.7765 23.899C50.7765 25.327 50.0555 26.223 49.0755 26.223C48.0955 26.223 47.3745 25.327 47.3745 23.899C47.3745 22.485 48.0955 21.589 49.0755 21.589ZM49.0755 22.436C48.5925 22.436 48.2635 22.947 48.2635 23.899C48.2635 24.865 48.5925 25.383 49.0755 25.383C49.5585 25.383 49.8805 24.865 49.8805 23.899C49.8805 22.947 49.5585 22.436 49.0755 22.436ZM56.8173 22.163H57.5523V22.891C57.5523 24.354 56.9363 25.845 55.7463 26.405L55.2213 25.67C56.2923 25.166 56.8173 23.955 56.8173 22.891V22.163ZM57.0133 22.163H57.7483V22.891C57.7483 23.871 58.2523 25.019 59.3163 25.509L58.8053 26.244C57.6153 25.691 57.0133 24.27 57.0133 22.891V22.163ZM55.4733 21.764H59.0293V22.527H55.4733V21.764ZM59.5053 21.141H60.4433V27.623H59.5053V21.141ZM60.2333 23.612H61.3813V24.382H60.2333V23.612ZM64.2018 21.862H65.0068V22.051C65.0068 23.192 64.0758 24.123 62.4308 24.347L62.0878 23.619C63.5158 23.444 64.2018 22.716 64.2018 22.051V21.862ZM64.4678 21.862H65.2728V22.051C65.2728 22.716 65.9588 23.444 67.3868 23.619L67.0508 24.347C65.3988 24.123 64.4678 23.192 64.4678 22.051V21.862ZM64.2508 25.25H65.1748V27.63H64.2508V25.25ZM61.8078 24.718H67.6668V25.46H61.8078V24.718ZM62.3258 21.47H67.1348V22.205H62.3258V21.47ZM74.4216 21.134H75.3596V27.637H74.4216V21.134ZM71.8666 21.589C72.8466 21.589 73.5676 22.485 73.5676 23.899C73.5676 25.327 72.8466 26.223 71.8666 26.223C70.8866 26.223 70.1656 25.327 70.1656 23.899C70.1656 22.485 70.8866 21.589 71.8666 21.589ZM71.8666 22.436C71.3836 22.436 71.0546 22.947 71.0546 23.899C71.0546 24.865 71.3836 25.383 71.8666 25.383C72.3496 25.383 72.6716 24.865 72.6716 23.899C72.6716 22.947 72.3496 22.436 71.8666 22.436ZM77.732 23.311H78.663V24.501H77.732V23.311ZM80.014 23.311H80.938V24.501H80.014V23.311ZM76.416 24.214H82.275V24.949H76.416V24.214ZM79.335 25.278C80.735 25.278 81.582 25.698 81.582 26.447C81.582 27.203 80.735 27.623 79.335 27.623C77.928 27.623 77.081 27.203 77.081 26.447C77.081 25.698 77.928 25.278 79.335 25.278ZM79.335 25.978C78.467 25.978 78.026 26.125 78.026 26.447C78.026 26.776 78.467 26.923 79.335 26.923C80.203 26.923 80.644 26.776 80.644 26.447C80.644 26.125 80.203 25.978 79.335 25.978ZM79.349 21.232C80.777 21.232 81.694 21.708 81.694 22.485C81.694 23.255 80.777 23.717 79.349 23.717C77.914 23.717 77.004 23.255 77.004 22.485C77.004 21.708 77.914 21.232 79.349 21.232ZM79.349 21.946C78.46 21.946 77.963 22.121 77.963 22.485C77.963 22.842 78.46 23.017 79.349 23.017C80.238 23.017 80.735 22.842 80.735 22.485C80.735 22.121 80.238 21.946 79.349 21.946ZM87.0135 21.141H87.9375V27.623H87.0135V21.141ZM87.7275 23.668H88.8755V24.445H87.7275V23.668ZM82.8275 22.1H86.6005V22.842H82.8275V22.1ZM84.7245 23.206C85.6695 23.206 86.3695 23.85 86.3695 24.753C86.3695 25.656 85.6695 26.3 84.7245 26.3C83.7795 26.3 83.0795 25.656 83.0795 24.753C83.0795 23.85 83.7795 23.206 84.7245 23.206ZM84.7245 23.962C84.2835 23.962 83.9685 24.256 83.9685 24.753C83.9685 25.25 84.2835 25.544 84.7245 25.544C85.1655 25.544 85.4805 25.25 85.4805 24.753C85.4805 24.256 85.1655 23.962 84.7245 23.962ZM84.2555 21.246H85.1865V22.38H84.2555V21.246ZM90.0229 22.891H94.5169V23.626H90.0229V22.891ZM89.2949 24.298H95.1679V25.04H89.2949V24.298ZM90.0229 21.372H90.9469V23.255H90.0229V21.372ZM89.9599 26.741H94.5519V27.483H89.9599V26.741ZM89.9599 25.558H90.8909V26.937H89.9599V25.558ZM97.4637 24.48H103.33V25.208H97.4637V24.48ZM99.9277 23.787H100.859V24.746H99.9277V23.787ZM98.1917 23.381H102.707V24.088H98.1917V23.381ZM98.1917 21.302H102.658V22.009H99.1157V23.78H98.1917V21.302ZM98.8567 22.352H102.511V23.031H98.8567V22.352ZM100.39 25.495C101.811 25.495 102.637 25.873 102.637 26.559C102.637 27.252 101.811 27.623 100.39 27.623C98.9617 27.623 98.1357 27.252 98.1357 26.559C98.1357 25.873 98.9617 25.495 100.39 25.495ZM100.39 26.181C99.4867 26.181 99.0737 26.293 99.0737 26.559C99.0737 26.832 99.4867 26.944 100.39 26.944C101.286 26.944 101.699 26.832 101.699 26.559C101.699 26.293 101.286 26.181 100.39 26.181ZM103.917 26.153H109.783V26.909H103.917V26.153ZM106.374 24.928H107.305V26.461H106.374V24.928ZM104.575 21.561H109.125V23.717H105.513V24.809H104.589V22.989H108.201V22.296H104.575V21.561ZM104.589 24.438H109.272V25.187H104.589V24.438ZM111.806 24.424H112.737V25.957H111.806V24.424ZM112.261 21.519C113.262 21.519 114.025 22.184 114.025 23.115C114.025 24.046 113.262 24.711 112.261 24.711C111.253 24.711 110.497 24.046 110.497 23.115C110.497 22.184 111.253 21.519 112.261 21.519ZM112.261 22.31C111.771 22.31 111.407 22.604 111.407 23.115C111.407 23.619 111.771 23.92 112.261 23.92C112.751 23.92 113.115 23.619 113.115 23.115C113.115 22.604 112.751 22.31 112.261 22.31ZM114.536 21.141H115.467V27.623H114.536V21.141ZM115.18 23.675H116.321V24.452H115.18V23.675ZM110.392 26.335L110.28 25.586C111.4 25.579 112.912 25.586 114.2 25.411L114.27 26.09C112.926 26.342 111.484 26.342 110.392 26.335ZM122.669 21.134H123.607V27.616H122.669V21.134ZM123.362 23.612H124.503V24.375H123.362V23.612ZM120.968 21.806H121.878C121.878 23.752 121.136 25.418 118.98 26.503L118.462 25.796C120.163 24.914 120.968 23.724 120.968 21.967V21.806ZM118.819 21.806H121.444V22.555H118.819V21.806ZM129.186 21.141H130.117V27.623H129.186V21.141ZM129.83 23.675H130.957V24.445H129.83V23.675ZM126.008 21.799H126.876C126.876 23.598 126.708 24.977 125.56 26.265L124.832 25.74C125.833 24.634 126.008 23.556 126.008 21.911V21.799ZM125.119 21.799H126.372V22.555H125.119V21.799ZM127.793 21.799H128.661C128.661 23.682 128.507 25.271 127.38 26.678L126.652 26.16C127.632 24.921 127.793 23.675 127.793 21.904V21.799ZM127.093 21.799H128.178V22.555H127.093V21.799ZM131.404 24.291H137.277V25.026H131.404V24.291ZM133.917 24.774H134.862V26.139H133.917V24.774ZM132.09 26.762H136.633V27.511H132.09V26.762ZM132.09 25.572H133.028V26.951H132.09V25.572ZM134.337 21.26C135.73 21.26 136.668 21.785 136.668 22.604C136.668 23.43 135.73 23.948 134.337 23.948C132.937 23.948 132.006 23.43 132.006 22.604C132.006 21.785 132.937 21.26 134.337 21.26ZM134.337 21.995C133.518 21.995 133.007 22.205 133.007 22.604C133.007 23.003 133.518 23.206 134.337 23.206C135.156 23.206 135.667 23.003 135.667 22.604C135.667 22.205 135.156 21.995 134.337 21.995ZM23.4104 31.911H24.1664V32.268C24.1664 33.423 23.5784 34.445 22.3534 34.809L21.8984 34.088C22.9484 33.773 23.4104 33.024 23.4104 32.268V31.911ZM23.5994 31.911H24.3554V32.268C24.3554 32.968 24.7964 33.668 25.8254 33.969L25.3914 34.69C24.1734 34.34 23.5994 33.367 23.5994 32.268V31.911ZM22.1294 31.652H25.6364V32.408H22.1294V31.652ZM23.4174 34.529H24.3484V35.922H23.4174V34.529ZM26.7704 33.696H27.9114V34.473H26.7704V33.696ZM26.1264 31.141H27.0574V37.623H26.1264V31.141ZM21.9824 36.391L21.8704 35.642C22.9834 35.642 24.5024 35.649 25.7904 35.467L25.8604 36.146C24.5094 36.398 23.0674 36.398 21.9824 36.391ZM31.6909 32.345H33.0069V33.101H31.6909V32.345ZM29.8639 31.477H30.6269V32.086C30.6269 33.367 30.0599 34.48 28.8279 34.907L28.3379 34.172C29.4229 33.815 29.8639 32.961 29.8639 32.086V31.477ZM30.0529 31.477H30.8019V32.142C30.8019 32.947 31.2359 33.738 32.2509 34.067L31.7679 34.795C30.5919 34.389 30.0529 33.339 30.0529 32.142V31.477ZM29.3879 35.292H33.8049V37.623H32.8739V36.027H29.3879V35.292ZM32.8739 31.141H33.8049V34.998H32.8739V31.141ZM41.0077 31.141H41.9457V34.627H41.0077V31.141ZM37.6337 34.907H38.5507V35.509H41.0217V34.907H41.9457V37.553H37.6337V34.907ZM38.5507 36.223V36.811H41.0217V36.223H38.5507ZM38.4177 31.407C39.4257 31.407 40.1747 32.044 40.1747 32.94C40.1747 33.836 39.4257 34.473 38.4177 34.473C37.4097 34.473 36.6537 33.836 36.6537 32.94C36.6537 32.044 37.4097 31.407 38.4177 31.407ZM38.4177 32.177C37.9207 32.177 37.5637 32.464 37.5637 32.94C37.5637 33.423 37.9207 33.703 38.4177 33.703C38.9077 33.703 39.2647 33.423 39.2647 32.94C39.2647 32.464 38.9077 32.177 38.4177 32.177ZM47.4821 31.141H48.4131V37.623H47.4821V31.141ZM43.3381 31.757H44.2621V35.782H43.3381V31.757ZM43.3381 35.236H43.9121C44.8571 35.236 45.9071 35.166 46.9781 34.956L47.0831 35.726C45.9701 35.957 44.8991 36.027 43.9121 36.027H43.3381V35.236ZM53.5786 31.134H54.5166V37.637H53.5786V31.134ZM54.3066 33.535H55.4546V34.298H54.3066V33.535ZM49.6866 35.306H50.2326C51.3246 35.306 52.1856 35.271 53.1376 35.103L53.2286 35.873C52.2486 36.048 51.3596 36.076 50.2326 36.076H49.6866V35.306ZM49.6866 31.736H52.7106V32.485H50.6106V35.677H49.6866V31.736ZM56.6107 37.0547C56.4599 37.0547 56.3306 37.0017 56.2229 36.8956C56.1152 36.7895 56.0622 36.6603 56.0638 36.5078C56.0622 36.3587 56.1152 36.2311 56.2229 36.125C56.3306 36.0189 56.4599 35.9659 56.6107 35.9659C56.7565 35.9659 56.8833 36.0189 56.991 36.125C57.1004 36.2311 57.1559 36.3587 57.1576 36.5078C57.1559 36.6089 57.1294 36.7009 57.078 36.7837C57.0283 36.8666 56.962 36.9329 56.8792 36.9826C56.798 37.0307 56.7085 37.0547 56.6107 37.0547ZM59.3743 31.911H60.1303V32.268C60.1303 33.423 59.5423 34.445 58.3173 34.809L57.8623 34.088C58.9123 33.773 59.3743 33.024 59.3743 32.268V31.911ZM59.5633 31.911H60.3193V32.268C60.3193 32.968 60.7603 33.668 61.7893 33.969L61.3553 34.69C60.1373 34.34 59.5633 33.367 59.5633 32.268V31.911ZM58.0933 31.652H61.6003V32.408H58.0933V31.652ZM59.3813 34.529H60.3123V35.922H59.3813V34.529ZM62.7343 33.696H63.8753V34.473H62.7343V33.696ZM62.0903 31.141H63.0213V37.623H62.0903V31.141ZM57.9463 36.391L57.8343 35.642C58.9473 35.642 60.4663 35.649 61.7543 35.467L61.8243 36.146C60.4733 36.398 59.0313 36.398 57.9463 36.391ZM67.6548 32.345H68.9708V33.101H67.6548V32.345ZM65.8278 31.477H66.5908V32.086C66.5908 33.367 66.0238 34.48 64.7918 34.907L64.3018 34.172C65.3868 33.815 65.8278 32.961 65.8278 32.086V31.477ZM66.0168 31.477H66.7658V32.142C66.7658 32.947 67.1998 33.738 68.2148 34.067L67.7318 34.795C66.5558 34.389 66.0168 33.339 66.0168 32.142V31.477ZM65.3518 35.292H69.7688V37.623H68.8378V36.027H65.3518V35.292ZM68.8378 31.141H69.7688V34.998H68.8378V31.141ZM75.0955 32.569H76.1735V33.318H75.0955V32.569ZM75.0955 34.571H76.1735V35.327H75.0955V34.571ZM77.2025 31.141H78.0915V37.623H77.2025V31.141ZM75.9075 31.239H76.7755V37.329H75.9075V31.239ZM73.9755 31.596C74.8365 31.596 75.3895 32.485 75.3895 33.948C75.3895 35.418 74.8365 36.307 73.9755 36.307C73.1215 36.307 72.5755 35.418 72.5755 33.948C72.5755 32.485 73.1215 31.596 73.9755 31.596ZM73.9755 32.471C73.6185 32.471 73.4085 32.961 73.4085 33.948C73.4085 34.942 73.6185 35.425 73.9755 35.425C74.3395 35.425 74.5495 34.942 74.5495 33.948C74.5495 32.961 74.3395 32.471 73.9755 32.471ZM83.775 31.981H84.895V32.744H83.775V31.981ZM83.775 33.388H84.895V34.151H83.775V33.388ZM83.131 31.141H84.062V34.963H83.131V31.141ZM79.736 35.229H84.062V37.623H83.131V35.971H79.736V35.229ZM80.765 31.491C81.766 31.491 82.529 32.156 82.529 33.08C82.529 34.004 81.766 34.662 80.765 34.662C79.764 34.662 79.001 34.004 79.001 33.08C79.001 32.156 79.764 31.491 80.765 31.491ZM80.765 32.282C80.275 32.282 79.911 32.569 79.911 33.08C79.911 33.591 80.275 33.885 80.765 33.885C81.255 33.885 81.619 33.591 81.619 33.08C81.619 32.569 81.255 32.282 80.765 32.282ZM88.7168 31.638H89.4728V32.583C89.4728 34.249 88.8988 35.754 87.6108 36.349L87.0578 35.579C88.1848 35.089 88.7168 33.843 88.7168 32.583V31.638ZM88.8988 31.638H89.6548V32.583C89.6548 33.78 90.1658 34.97 91.2718 35.446L90.7258 36.195C89.4728 35.621 88.8988 34.179 88.8988 32.583V31.638ZM91.5798 31.134H92.5178V37.637H91.5798V31.134ZM96.7665 32.226H97.5155V32.464C97.5155 33.577 96.9345 34.557 95.6955 34.9L95.2615 34.179C96.3115 33.892 96.7665 33.178 96.7665 32.464V32.226ZM96.9415 32.226H97.6975V32.464C97.6975 33.122 98.1455 33.794 99.1885 34.067L98.7685 34.795C97.5225 34.466 96.9415 33.521 96.9415 32.464V32.226ZM95.4925 31.785H98.9715V32.513H95.4925V31.785ZM96.7665 31.12H97.6975V32.1H96.7665V31.12ZM99.4825 31.141H100.414V34.935H99.4825V31.141ZM100.155 32.653H101.275V33.416H100.155V32.653ZM96.1995 35.208H100.414V37.553H96.1995V35.208ZM99.5035 35.936H97.1165V36.818H99.5035V35.936ZM102.352 31.687H106.461V32.436H102.352V31.687ZM101.757 36.09H107.616V36.846H101.757V36.09ZM103.829 33.864H104.76V36.461H103.829V33.864ZM106.125 31.687H107.056V32.31C107.056 33.122 107.056 34.032 106.797 35.418L105.866 35.313C106.125 34.025 106.125 33.087 106.125 32.31V31.687ZM108.182 32.114H111.283V32.856H108.182V32.114ZM109.743 33.143C110.569 33.143 111.164 33.78 111.164 34.69C111.164 35.593 110.569 36.23 109.743 36.23C108.924 36.23 108.322 35.593 108.322 34.69C108.322 33.78 108.924 33.143 109.743 33.143ZM109.743 33.92C109.393 33.92 109.148 34.2 109.148 34.69C109.148 35.18 109.393 35.453 109.743 35.453C110.093 35.453 110.345 35.18 110.345 34.69C110.345 34.2 110.093 33.92 109.743 33.92ZM112.872 31.141H113.761V37.623H112.872V31.141ZM112.095 33.773H113.166V34.522H112.095V33.773ZM111.514 31.26H112.382V37.35H111.514V31.26ZM109.288 31.316H110.205V32.583H109.288V31.316ZM118.766 31.862H119.571V32.051C119.571 33.192 118.64 34.123 116.995 34.347L116.652 33.619C118.08 33.444 118.766 32.716 118.766 32.051V31.862ZM119.032 31.862H119.837V32.051C119.837 32.716 120.523 33.444 121.951 33.619L121.615 34.347C119.963 34.123 119.032 33.192 119.032 32.051V31.862ZM118.815 35.25H119.739V37.63H118.815V35.25ZM116.372 34.718H122.231V35.46H116.372V34.718ZM116.89 31.47H121.699V32.205H116.89V31.47ZM125.36 33.318H126.431V34.074H125.36V33.318ZM123.974 31.701H124.688V32.793C124.688 34.263 124.282 35.698 123.246 36.335L122.686 35.635C123.638 35.047 123.974 33.892 123.974 32.793V31.701ZM124.177 31.701H124.877V32.751C124.877 33.808 125.15 34.886 126.032 35.46L125.528 36.188C124.499 35.551 124.177 34.151 124.177 32.751V31.701ZM127.488 31.141H128.377V37.623H127.488V31.141ZM126.172 31.239H127.04V37.329H126.172V31.239ZM130.539 34.431H131.463V36.251H130.539V34.431ZM132.891 34.431H133.822V36.251H132.891V34.431ZM129.251 36.118H135.117V36.874H129.251V36.118ZM132.177 31.456C133.57 31.456 134.599 32.142 134.599 33.199C134.599 34.256 133.57 34.935 132.177 34.935C130.777 34.935 129.755 34.256 129.755 33.199C129.755 32.142 130.777 31.456 132.177 31.456ZM132.177 32.184C131.274 32.184 130.672 32.555 130.672 33.199C130.672 33.836 131.274 34.214 132.177 34.214C133.08 34.214 133.682 33.836 133.682 33.199C133.682 32.555 133.08 32.184 132.177 32.184ZM136.967 31.9091L136.885 35.5036H136.085L136.005 31.9091H136.967ZM136.485 37.0547C136.334 37.0547 136.205 37.0017 136.097 36.8956C135.991 36.7895 135.938 36.6603 135.938 36.5078C135.938 36.3587 135.991 36.2311 136.097 36.125C136.205 36.0189 136.334 35.9659 136.485 35.9659C136.632 35.9659 136.76 36.0189 136.868 36.125C136.977 36.2311 137.032 36.3587 137.032 36.5078C137.032 36.6089 137.006 36.7009 136.955 36.7837C136.905 36.8666 136.839 36.9329 136.756 36.9826C136.675 37.0307 136.584 37.0547 136.485 37.0547Z" fill="white"/>
</svg>
