<svg width="211" height="29" viewBox="0 0 211 29" fill="none" xmlns="http://www.w3.org/2000/svg">
<rect width="18" height="18" transform="translate(18 5.5) rotate(90)" fill="white"/>
<path d="M6.93696 12.9999L6.86035 13.0004" stroke="#4169E1" stroke-width="1.5" stroke-linecap="round" stroke-linejoin="round"/>
<path d="M8.25044 15.5509L8.17383 15.5514" stroke="#4169E1" stroke-width="1.5" stroke-linecap="round" stroke-linejoin="round"/>
<path d="M16.5 11.4999C15.9644 11.5049 15.5348 11.9438 15.5399 12.4794L15.5399 13.2354C15.5463 14.0624 14.8833 14.739 14.0563 14.7505L13.3009 14.7505" stroke="#4169E1" stroke-width="1.5" stroke-linecap="round" stroke-linejoin="round"/>
<path fill-rule="evenodd" clip-rule="evenodd" d="M7.5 19.7499C11.4372 19.7499 12.75 18.4376 12.75 14.5001C12.75 10.5622 11.4372 9.24988 7.5 9.24988C3.56216 9.24988 2.25 10.5622 2.25 14.5001C2.25 18.4376 3.56216 19.7499 7.5 19.7499Z" stroke="#4169E1" stroke-width="1.5" stroke-linecap="round" stroke-linejoin="round"/>
<path d="M24.92 14.26H26.24V15.59H24.92V14.26ZM21.4 13.58H29.77V14.62H21.4V13.58ZM24.92 9.16H26.24V10.44H24.92V9.16ZM24.84 10.54H26.01V10.72C26.01 12.12 24.67 13.11 22.14 13.28L21.75 12.28C23.98 12.15 24.84 11.43 24.84 10.72V10.54ZM25.15 10.54H26.32V10.72C26.32 11.43 27.18 12.15 29.41 12.28L29.02 13.28C26.49 13.11 25.15 12.12 25.15 10.72V10.54ZM22.2 9.96H28.97V10.99H22.2V9.96ZM25.57 15.25C27.59 15.25 28.78 15.81 28.78 16.82C28.78 17.84 27.59 18.39 25.57 18.39C23.55 18.39 22.35 17.84 22.35 16.82C22.35 15.81 23.55 15.25 25.57 15.25ZM25.57 16.23C24.31 16.23 23.7 16.4 23.7 16.82C23.7 17.23 24.31 17.41 25.57 17.41C26.82 17.41 27.44 17.23 27.44 16.82C27.44 16.4 26.82 16.23 25.57 16.23ZM34.5592 11.52H36.7192V12.59H34.5592V11.52ZM36.0192 9.14H37.3492V15.89H36.0192V9.14ZM31.2392 17.17H37.5592V18.23H31.2392V17.17ZM31.2392 15.32H32.5692V17.8H31.2392V15.32ZM31.7392 10.35H32.8192V10.93C32.8192 12.67 31.9992 14.28 30.2192 14.87L29.5492 13.81C31.0792 13.31 31.7392 12.1 31.7392 10.93V10.35ZM32.0192 10.35H33.0892V10.93C33.0892 12.01 33.7192 13.16 35.1792 13.65L34.5292 14.69C32.8092 14.12 32.0192 12.58 32.0192 10.93V10.35ZM29.9092 9.76H34.8892V10.81H29.9092V9.76ZM43.7184 9.12H45.0584V18.38H43.7184V9.12ZM44.7084 12.66H46.3384V13.75H44.7084V12.66ZM41.2884 10.08H42.5884C42.5884 12.86 41.5284 15.24 38.4484 16.79L37.7084 15.78C40.1384 14.52 41.2884 12.82 41.2884 10.31V10.08ZM38.2184 10.08H41.9684V11.15H38.2184V10.08ZM47.0577 11.43H53.4477V12.49H47.0577V11.43ZM47.0577 9.28H48.3777V11.91H47.0577V9.28ZM46.0077 13.28H54.3877V14.34H46.0077V13.28ZM50.1677 14.93C52.1677 14.93 53.3777 15.55 53.3777 16.65C53.3777 17.74 52.1677 18.37 50.1677 18.37C48.1677 18.37 46.9477 17.74 46.9477 16.65C46.9477 15.55 48.1677 14.93 50.1677 14.93ZM50.1677 15.95C48.9277 15.95 48.2977 16.17 48.2977 16.65C48.2977 17.12 48.9277 17.35 50.1677 17.35C51.4077 17.35 52.0377 17.12 52.0377 16.65C52.0377 16.17 51.4077 15.95 50.1677 15.95Z" fill="black"/>
<path d="M81.418 14.3799H79.5918L79.582 13.374H81.1152C81.3854 13.374 81.6068 13.3398 81.7793 13.2715C81.9518 13.1999 82.0804 13.0973 82.165 12.9639C82.2529 12.8271 82.2969 12.6611 82.2969 12.4658C82.2969 12.2445 82.2546 12.0654 82.1699 11.9287C82.0885 11.792 81.96 11.6927 81.7842 11.6309C81.6117 11.569 81.3887 11.5381 81.1152 11.5381H80.0996V17.5H78.6348V10.3906H81.1152C81.5286 10.3906 81.8981 10.4297 82.2236 10.5078C82.5524 10.5859 82.8307 10.7048 83.0586 10.8643C83.2865 11.0238 83.4606 11.2256 83.5811 11.4697C83.7015 11.7106 83.7617 11.9971 83.7617 12.3291C83.7617 12.6221 83.695 12.8923 83.5615 13.1396C83.4313 13.387 83.2246 13.5889 82.9414 13.7451C82.6615 13.9014 82.2952 13.9876 81.8428 14.0039L81.418 14.3799ZM81.3545 17.5H79.1914L79.7627 16.3574H81.3545C81.6117 16.3574 81.8216 16.3167 81.9844 16.2354C82.1471 16.1507 82.2676 16.0368 82.3457 15.8936C82.4238 15.7503 82.4629 15.5859 82.4629 15.4004C82.4629 15.1921 82.4271 15.0114 82.3555 14.8584C82.2871 14.7054 82.1764 14.5882 82.0234 14.5068C81.8704 14.4222 81.6686 14.3799 81.418 14.3799H80.0068L80.0166 13.374H81.7744L82.1113 13.7695C82.5443 13.763 82.8926 13.8395 83.1562 13.999C83.4232 14.1553 83.6169 14.3587 83.7373 14.6094C83.861 14.86 83.9229 15.1286 83.9229 15.415C83.9229 15.8708 83.8236 16.2549 83.625 16.5674C83.4264 16.8766 83.1351 17.1094 82.751 17.2656C82.3701 17.4219 81.9046 17.5 81.3545 17.5ZM86.3652 17.5977C85.9551 17.5977 85.5872 17.5326 85.2617 17.4023C84.9362 17.2689 84.6595 17.085 84.4316 16.8506C84.207 16.6162 84.0345 16.3444 83.9141 16.0352C83.7936 15.7227 83.7334 15.3906 83.7334 15.0391V14.8438C83.7334 14.4434 83.7904 14.0771 83.9043 13.7451C84.0182 13.4131 84.181 13.125 84.3926 12.8809C84.6074 12.6367 84.8678 12.4495 85.1738 12.3193C85.4798 12.1859 85.8249 12.1191 86.209 12.1191C86.5833 12.1191 86.9154 12.181 87.2051 12.3047C87.4948 12.4284 87.7373 12.6042 87.9326 12.832C88.1312 13.0599 88.2809 13.3333 88.3818 13.6523C88.4827 13.9681 88.5332 14.3197 88.5332 14.707V15.293H84.334V14.3555H87.1514V14.248C87.1514 14.0527 87.1156 13.8786 87.0439 13.7256C86.9756 13.5693 86.8714 13.4456 86.7314 13.3545C86.5915 13.2633 86.4124 13.2178 86.1943 13.2178C86.0088 13.2178 85.8493 13.2585 85.7158 13.3398C85.5824 13.4212 85.4733 13.5352 85.3887 13.6816C85.3073 13.8281 85.2454 14.0007 85.2031 14.1992C85.1641 14.3945 85.1445 14.6094 85.1445 14.8438V15.0391C85.1445 15.2507 85.1738 15.446 85.2324 15.625C85.2943 15.804 85.3805 15.9587 85.4912 16.0889C85.6051 16.2191 85.7419 16.32 85.9014 16.3916C86.0641 16.4632 86.248 16.499 86.4531 16.499C86.707 16.499 86.943 16.4502 87.1611 16.3525C87.3825 16.2516 87.5729 16.1003 87.7324 15.8984L88.416 16.6406C88.3053 16.8001 88.154 16.9531 87.9619 17.0996C87.7731 17.2461 87.5452 17.3665 87.2783 17.4609C87.0114 17.5521 86.707 17.5977 86.3652 17.5977ZM91.1904 16.04C91.1904 15.9391 91.1611 15.848 91.1025 15.7666C91.0439 15.6852 90.9349 15.6104 90.7754 15.542C90.6191 15.4704 90.3929 15.4053 90.0967 15.3467C89.8298 15.2881 89.5807 15.2148 89.3496 15.127C89.1217 15.0358 88.9232 14.9268 88.7539 14.7998C88.5879 14.6729 88.4577 14.5231 88.3633 14.3506C88.2689 14.1748 88.2217 13.9746 88.2217 13.75C88.2217 13.5286 88.2689 13.3203 88.3633 13.125C88.4609 12.9297 88.5993 12.7572 88.7783 12.6074C88.9606 12.4544 89.182 12.3356 89.4424 12.251C89.7061 12.1631 90.0023 12.1191 90.3311 12.1191C90.79 12.1191 91.1839 12.1924 91.5127 12.3389C91.8447 12.4854 92.0986 12.6872 92.2744 12.9443C92.4535 13.1982 92.543 13.488 92.543 13.8135H91.1367C91.1367 13.6768 91.1074 13.5547 91.0488 13.4473C90.9935 13.3366 90.9056 13.2503 90.7852 13.1885C90.668 13.1234 90.515 13.0908 90.3262 13.0908C90.1699 13.0908 90.0348 13.1185 89.9209 13.1738C89.807 13.2259 89.7191 13.2975 89.6572 13.3887C89.5986 13.4766 89.5693 13.5742 89.5693 13.6816C89.5693 13.763 89.5856 13.8363 89.6182 13.9014C89.654 13.9632 89.7109 14.0202 89.7891 14.0723C89.8672 14.1243 89.9681 14.1732 90.0918 14.2188C90.2188 14.2611 90.375 14.3001 90.5605 14.3359C90.9414 14.4141 91.2816 14.5166 91.5811 14.6436C91.8805 14.7673 92.1182 14.9365 92.2939 15.1514C92.4697 15.363 92.5576 15.6413 92.5576 15.9863C92.5576 16.2207 92.5055 16.4355 92.4014 16.6309C92.2972 16.8262 92.1475 16.9971 91.9521 17.1436C91.7568 17.2868 91.5225 17.3991 91.249 17.4805C90.9788 17.5586 90.6745 17.5977 90.3359 17.5977C89.8444 17.5977 89.4277 17.5098 89.0859 17.334C88.7474 17.1582 88.4902 16.9352 88.3145 16.665C88.1419 16.3916 88.0557 16.1117 88.0557 15.8252H89.3887C89.3952 16.0173 89.444 16.1719 89.5352 16.2891C89.6296 16.4062 89.7484 16.4909 89.8916 16.543C90.0381 16.5951 90.196 16.6211 90.3652 16.6211C90.5475 16.6211 90.6989 16.5967 90.8193 16.5479C90.9398 16.4958 91.0309 16.4274 91.0928 16.3428C91.1579 16.2549 91.1904 16.154 91.1904 16.04ZM95.0586 12.2168V13.2129H91.9824V12.2168H95.0586ZM92.7441 10.9131H94.1504V15.9082C94.1504 16.0612 94.1699 16.1784 94.209 16.2598C94.2513 16.3411 94.3132 16.3981 94.3945 16.4307C94.4759 16.46 94.5785 16.4746 94.7021 16.4746C94.79 16.4746 94.8682 16.4714 94.9365 16.4648C95.0081 16.4551 95.0684 16.4453 95.1172 16.4355L95.1221 17.4707C95.0016 17.5098 94.8714 17.5407 94.7314 17.5635C94.5915 17.5863 94.4368 17.5977 94.2676 17.5977C93.9583 17.5977 93.6882 17.5472 93.457 17.4463C93.2292 17.3421 93.0534 17.1761 92.9297 16.9482C92.806 16.7204 92.7441 16.4209 92.7441 16.0498V10.9131ZM98.0727 14.54H99.4127V18.39H98.0727V14.54ZM101.383 14.54H102.723V18.39H101.383V14.54ZM96.2027 14.38H104.593V15.44H96.2027V14.38ZM97.1627 9.47H98.4827V10.48H102.283V9.47H103.603V13.51H97.1627V9.47ZM98.4827 11.53V12.44H102.283V11.53H98.4827Z" fill="black"/>
<mask id="mask0_145_2816" style="mask-type:alpha" maskUnits="userSpaceOnUse" x="65" y="9" width="10" height="10">
<path d="M70 13.1903C69.1531 13.1903 68.4375 13.9059 68.4375 14.7528C68.4375 15.5997 69.1531 16.3153 70 16.3153C70.8469 16.3153 71.5625 15.5997 71.5625 14.7528C71.5625 13.9059 70.8469 13.1903 70 13.1903Z" fill="#006FFD"/>
<path d="M74 11.2528H72.707L71.3535 9.89931C71.3071 9.85279 71.2521 9.81589 71.1914 9.79075C71.1307 9.76561 71.0657 9.75271 71 9.75281H69C68.9343 9.75271 68.8693 9.76561 68.8086 9.79075C68.7479 9.81589 68.6929 9.85279 68.6465 9.89931L67.293 11.2528H66C65.4485 11.2528 65 11.7013 65 12.2528V17.7528C65 18.3043 65.4485 18.7528 66 18.7528H74C74.5515 18.7528 75 18.3043 75 17.7528V12.2528C75 11.7013 74.5515 11.2528 74 11.2528ZM70 17.2528C68.645 17.2528 67.5 16.1078 67.5 14.7528C67.5 13.3978 68.645 12.2528 70 12.2528C71.355 12.2528 72.5 13.3978 72.5 14.7528C72.5 16.1078 71.355 17.2528 70 17.2528Z" fill="#006FFD"/>
</mask>
<g mask="url(#mask0_145_2816)">
<rect x="65" y="9.5" width="10" height="10" fill="#006FFD"/>
</g>
<path d="M127.319 12.74H128.849V13.82H127.319V12.74ZM125.339 10.43H126.359V11.99C126.359 14.09 125.779 16.14 124.299 17.05L123.499 16.05C124.859 15.21 125.339 13.56 125.339 11.99V10.43ZM125.629 10.43H126.629V11.93C126.629 13.44 127.019 14.98 128.279 15.8L127.559 16.84C126.089 15.93 125.629 13.93 125.629 11.93V10.43ZM130.359 9.63H131.629V18.89H130.359V9.63ZM128.479 9.77H129.719V18.47H128.479V9.77ZM131.868 14.96H140.258V16.01H131.868V14.96ZM135.368 15.49H136.688V18.89H135.368V15.49ZM132.828 9.98H134.148V11.03H137.948V9.98H139.268V14.08H132.828V9.98ZM134.148 12.07V13.02H137.948V12.07H134.148ZM143.657 10.73H144.737V11.24C144.737 12.89 143.897 14.35 142.147 14.87L141.497 13.84C142.997 13.39 143.657 12.32 143.657 11.24V10.73ZM143.927 10.73H145.007V11.24C145.007 12.24 145.637 13.24 147.107 13.67L146.487 14.7C144.747 14.2 143.927 12.81 143.927 11.24V10.73ZM141.827 10.36H146.837V11.44H141.827V10.36ZM143.667 14.47H144.997V16.46H143.667V14.47ZM148.457 13.28H150.087V14.39H148.457V13.28ZM147.537 9.63H148.867V18.89H147.537V9.63ZM141.617 17.13L141.457 16.06C143.047 16.06 145.217 16.07 147.057 15.81L147.157 16.78C145.227 17.14 143.167 17.14 141.617 17.13ZM154.486 11.35H156.366V12.43H154.486V11.35ZM151.876 10.11H152.966V10.98C152.966 12.81 152.156 14.4 150.396 15.01L149.696 13.96C151.246 13.45 151.876 12.23 151.876 10.98V10.11ZM152.146 10.11H153.216V11.06C153.216 12.21 153.836 13.34 155.286 13.81L154.596 14.85C152.916 14.27 152.146 12.77 152.146 11.06V10.11ZM151.196 15.56H157.506V18.89H156.176V16.61H151.196V15.56ZM156.176 9.63H157.506V15.14H156.176V9.63ZM159.446 12.84H167.826V13.9H159.446V12.84ZM162.966 13.53H164.296V15.35H162.966V13.53ZM160.396 14.65H166.786V17.21H161.736V18.25H160.416V16.24H165.456V15.68H160.396V14.65ZM160.416 17.8H167.036V18.83H160.416V17.8ZM160.186 9.91H162.346V10.97H160.186V9.91ZM161.946 9.91H163.246V10.54C163.246 11.25 163.246 12.21 162.796 13.39L161.536 13.09C161.946 11.95 161.946 11.22 161.946 10.54V9.91ZM163.796 9.91H166.176V10.97H163.796V9.91ZM165.566 9.91H166.846V10.44C166.846 11.11 166.846 12.07 166.466 13.32L165.176 13.15C165.566 11.91 165.566 11.08 165.566 10.44V9.91ZM168.155 13.56H168.945C170.855 13.56 171.965 13.53 173.235 13.32L173.365 14.36C172.065 14.57 170.895 14.6 168.945 14.6H168.155V13.56ZM168.155 10.1H172.605V11.15H169.475V14H168.155V10.1ZM169.065 11.82H172.335V12.86H169.065V11.82ZM174.005 9.63H175.345V14.79H174.005V9.63ZM169.185 15.18H170.495V15.95H174.025V15.18H175.345V18.79H169.185V15.18ZM170.495 16.97V17.73H174.025V16.97H170.495ZM179.385 9.95H180.465V10.54C180.465 12.3 179.645 13.82 177.855 14.38L177.215 13.32C178.745 12.86 179.385 11.73 179.385 10.54V9.95ZM179.655 9.95H180.725V10.51C180.725 11.64 181.345 12.69 182.825 13.12L182.155 14.15C180.435 13.62 179.655 12.2 179.655 10.51V9.95ZM183.295 9.63H184.625V14.38H183.295V9.63ZM184.085 11.43H185.845V12.52H184.085V11.43ZM178.505 14.74H184.625V17.24H179.845V18.37H178.525V16.28H183.315V15.76H178.505V14.74ZM178.525 17.8H184.895V18.83H178.525V17.8ZM185.724 10.41H190.804V11.47H185.724V10.41ZM185.624 16.86L185.494 15.78C187.094 15.78 189.244 15.76 191.044 15.55L191.114 16.52C189.274 16.83 187.204 16.86 185.624 16.86ZM186.494 11.31H187.784V15.98H186.494V11.31ZM188.694 11.31H189.984V15.98H188.694V11.31ZM191.984 9.63H193.304V18.89H191.984V9.63ZM190.674 11.93H192.994V12.99H190.674V11.93ZM190.674 13.98H192.994V15.03H190.674V13.98ZM193.743 16.74H202.123V17.82H193.743V16.74ZM197.253 14.76H198.583V17H197.253V14.76ZM194.623 10.22H195.943V11.64H199.893V10.22H201.213V15.04H194.623V10.22ZM195.943 12.68V13.98H199.893V12.68H195.943ZM208.312 9.63H209.652V18.89H208.312V9.63ZM205.582 10.59H206.902C206.902 13.42 205.942 15.74 202.652 17.33L201.962 16.27C204.622 14.99 205.582 13.31 205.582 10.83V10.59ZM202.452 10.59H206.212V11.64H202.452V10.59Z" fill="black"/>
</svg>
