<svg width="83" height="43" viewBox="0 0 83 43" fill="none" xmlns="http://www.w3.org/2000/svg">
<path fill-rule="evenodd" clip-rule="evenodd" d="M24.8207 8.01056H12.1785C7.77283 8.01056 5.01074 11.1299 5.01074 15.5443V27.456C5.01074 31.8703 7.7597 34.9897 12.1785 34.9897H24.8193C29.2395 34.9897 31.9899 31.8703 31.9899 27.456V15.5443C31.9899 11.1299 29.2395 8.01056 24.8207 8.01056Z" stroke="#212121" stroke-width="1.5" stroke-linecap="round" stroke-linejoin="round"/>
<path d="M36 28V33.7402C36 36.6456 33.2928 39 29.9522 39H28" stroke="#212121" stroke-width="1.5" stroke-linecap="round" stroke-linejoin="round"/>
<path d="M1 29V34.2184C1 36.8596 3.69028 39 7.01006 39H9" stroke="#212121" stroke-width="1.5" stroke-linecap="round" stroke-linejoin="round"/>
<path d="M10.7301 18.763H13.2141V19.375H10.7301V18.763ZM10.7301 20.581H13.2141V21.202H10.7301V20.581ZM8.29105 22.813H13.7181V25.702H12.9711V23.416H8.29105V22.813ZM12.9711 17.566H13.7181V22.363H12.9711V17.566ZM9.24505 18.016C10.4421 18.016 11.3421 18.826 11.3421 19.978C11.3421 21.13 10.4421 21.931 9.24505 21.931C8.03905 21.931 7.14805 21.13 7.14805 19.978C7.14805 18.826 8.03905 18.016 9.24505 18.016ZM9.24505 18.655C8.45305 18.655 7.86805 19.204 7.86805 19.978C7.86805 20.752 8.45305 21.292 9.24505 21.292C10.0371 21.292 10.6311 20.752 10.6311 19.978C10.6311 19.204 10.0371 18.655 9.24505 18.655ZM19.0274 22.669C20.6834 22.669 21.7004 23.227 21.7004 24.181C21.7004 25.135 20.6834 25.693 19.0274 25.693C17.3714 25.693 16.3544 25.135 16.3544 24.181C16.3544 23.227 17.3714 22.669 19.0274 22.669ZM19.0274 23.272C17.8214 23.272 17.0834 23.605 17.0834 24.181C17.0834 24.766 17.8214 25.099 19.0274 25.099C20.2334 25.099 20.9714 24.766 20.9714 24.181C20.9714 23.605 20.2334 23.272 19.0274 23.272ZM20.8724 17.566H21.6194V22.453H20.8724V17.566ZM21.4124 19.609H22.8254V20.239H21.4124V19.609ZM15.6434 18.079H16.3814V19.294H18.6764V18.079H19.4054V21.832H15.6434V18.079ZM16.3814 19.888V21.229H18.6764V19.888H16.3814ZM29.6736 18.97H31.0866V19.591H29.6736V18.97ZM29.6736 20.707H31.0866V21.328H29.6736V20.707ZM29.1516 17.566H29.8986V22.804H29.1516V17.566ZM27.3426 22.876C28.9896 22.876 29.9886 23.389 29.9886 24.28C29.9886 25.171 28.9896 25.684 27.3426 25.684C25.7046 25.684 24.6966 25.171 24.6966 24.28C24.6966 23.389 25.7046 22.876 27.3426 22.876ZM27.3426 23.452C26.1546 23.452 25.4346 23.758 25.4346 24.28C25.4346 24.811 26.1546 25.108 27.3426 25.108C28.5396 25.108 29.2596 24.811 29.2596 24.28C29.2596 23.758 28.5396 23.452 27.3426 23.452ZM23.6076 18.484H28.4136V19.078H23.6076V18.484ZM26.0106 19.492C27.1716 19.492 27.9546 20.05 27.9546 20.923C27.9546 21.805 27.1716 22.363 26.0106 22.363C24.8406 22.363 24.0576 21.805 24.0576 20.923C24.0576 20.05 24.8406 19.492 26.0106 19.492ZM26.0106 20.059C25.2636 20.059 24.7686 20.401 24.7686 20.923C24.7686 21.454 25.2636 21.796 26.0106 21.796C26.7396 21.796 27.2436 21.454 27.2436 20.923C27.2436 20.401 26.7396 20.059 26.0106 20.059ZM25.6326 17.494H26.3796V18.817H25.6326V17.494Z" fill="black"/>
<path d="M82 19V15.5384C82 10.8231 78.9544 7 75.1962 7H73" stroke="#212121" stroke-width="1.5" stroke-linecap="round" stroke-linejoin="round"/>
<path d="M46 21V16.9615C46 11.4602 49.0266 7 52.7613 7H55" stroke="#212121" stroke-width="1.5" stroke-linecap="round" stroke-linejoin="round"/>
<path fill-rule="evenodd" clip-rule="evenodd" d="M70.8207 12.0106H58.1785C53.7728 12.0106 51.0107 15.1299 51.0107 19.5443V31.456C51.0107 35.8703 53.7597 38.9897 58.1785 38.9897H70.8193C75.2395 38.9897 77.9899 35.8703 77.9899 31.456V19.5443C77.9899 15.1299 75.2395 12.0106 70.8207 12.0106Z" stroke="#212121" stroke-width="1.5" stroke-linecap="round" stroke-linejoin="round"/>
<path d="M71 7.5H58" stroke="#212121" stroke-width="1.5" stroke-linecap="round" stroke-linejoin="round"/>
<path d="M56.3251 21.773H56.9641V22.169C56.9641 23.645 55.4071 24.734 53.7601 25.022L53.4631 24.428C54.9031 24.212 56.3251 23.258 56.3251 22.169V21.773ZM56.4421 21.773H57.0811V22.169C57.0811 23.231 58.5211 24.203 59.9341 24.419L59.6551 25.004C58.0081 24.725 56.4421 23.609 56.4421 22.169V21.773ZM53.0221 25.706H60.3931V26.318H53.0221V25.706ZM56.3881 26.084H57.1351V27.956H56.3881V26.084ZM53.9581 28.91H59.5741V29.522H53.9581V28.91ZM53.9581 27.173H54.6961V29.108H53.9581V27.173ZM65.0274 26.669C66.6834 26.669 67.7004 27.227 67.7004 28.181C67.7004 29.135 66.6834 29.693 65.0274 29.693C63.3714 29.693 62.3544 29.135 62.3544 28.181C62.3544 27.227 63.3714 26.669 65.0274 26.669ZM65.0274 27.272C63.8214 27.272 63.0834 27.605 63.0834 28.181C63.0834 28.766 63.8214 29.099 65.0274 29.099C66.2334 29.099 66.9714 28.766 66.9714 28.181C66.9714 27.605 66.2334 27.272 65.0274 27.272ZM66.8724 21.566H67.6194V26.453H66.8724V21.566ZM67.4124 23.609H68.8254V24.239H67.4124V23.609ZM61.6434 22.079H62.3814V23.294H64.6764V22.079H65.4054V25.832H61.6434V22.079ZM62.3814 23.888V25.229H64.6764V23.888H62.3814ZM75.6736 22.97H77.0866V23.591H75.6736V22.97ZM75.6736 24.707H77.0866V25.328H75.6736V24.707ZM75.1516 21.566H75.8986V26.804H75.1516V21.566ZM73.3426 26.876C74.9896 26.876 75.9886 27.389 75.9886 28.28C75.9886 29.171 74.9896 29.684 73.3426 29.684C71.7046 29.684 70.6966 29.171 70.6966 28.28C70.6966 27.389 71.7046 26.876 73.3426 26.876ZM73.3426 27.452C72.1546 27.452 71.4346 27.758 71.4346 28.28C71.4346 28.811 72.1546 29.108 73.3426 29.108C74.5396 29.108 75.2596 28.811 75.2596 28.28C75.2596 27.758 74.5396 27.452 73.3426 27.452ZM69.6076 22.484H74.4136V23.078H69.6076V22.484ZM72.0106 23.492C73.1716 23.492 73.9546 24.05 73.9546 24.923C73.9546 25.805 73.1716 26.363 72.0106 26.363C70.8406 26.363 70.0576 25.805 70.0576 24.923C70.0576 24.05 70.8406 23.492 72.0106 23.492ZM72.0106 24.059C71.2636 24.059 70.7686 24.401 70.7686 24.923C70.7686 25.454 71.2636 25.796 72.0106 25.796C72.7396 25.796 73.2436 25.454 73.2436 24.923C73.2436 24.401 72.7396 24.059 72.0106 24.059ZM71.6326 21.494H72.3796V22.817H71.6326V21.494Z" fill="black"/>
</svg>
