<svg width="327" height="77" viewBox="0 0 327 77" fill="none" xmlns="http://www.w3.org/2000/svg">
<path d="M0 38.5C0 17.237 17.237 0 38.5 0H288.5C309.763 0 327 17.237 327 38.5V38.5C327 59.763 309.763 77 288.5 77H38.5C17.237 77 0 59.763 0 38.5V38.5Z" fill="white"/>
<circle cx="85.75" cy="28" r="12" fill="white"/>
<path opacity="0.1" d="M84.7997 24.7273V32H83.4822V26.0092H83.4396L81.7386 27.0959V25.8885L83.5462 24.7273H84.7997ZM90.1044 24.7273V32H88.7869V26.0092H88.7443L87.0433 27.0959V25.8885L88.8509 24.7273H90.1044Z" fill="white"/>
<mask id="mask0_167_3583" style="mask-type:alpha" maskUnits="userSpaceOnUse" x="74" y="17" width="23" height="22">
<circle cx="85.75" cy="28" r="11" fill="#D9D9D9"/>
</mask>
<g mask="url(#mask0_167_3583)">
<rect x="73.75" y="16" width="24" height="24" fill="#006FFD"/>
</g>
<path d="M66.202 55.192H67.51V55.888C67.51 58.012 66.514 59.92 64.366 60.628L63.574 59.368C65.422 58.756 66.202 57.304 66.202 55.888V55.192ZM66.526 55.192H67.822V55.888C67.822 57.184 68.566 58.456 70.354 58.996L69.598 60.244C67.486 59.608 66.526 57.868 66.526 55.888V55.192ZM63.994 54.7H69.994V55.972H63.994V54.7ZM70.882 53.956H72.478V60.544H70.882V53.956ZM72.034 56.512H73.954V57.82H72.034V56.512ZM68.854 60.748C71.158 60.748 72.61 61.552 72.61 62.908C72.61 64.264 71.158 65.068 68.854 65.068C66.538 65.068 65.086 64.264 65.086 62.908C65.086 61.552 66.538 60.748 68.854 60.748ZM68.854 61.996C67.438 61.996 66.67 62.284 66.67 62.908C66.67 63.532 67.438 63.844 68.854 63.844C70.27 63.844 71.026 63.532 71.026 62.908C71.026 62.284 70.27 61.996 68.854 61.996ZM81.8731 53.956H83.4811V65.068H81.8731V53.956ZM83.1211 58.096H85.0891V59.416H83.1211V58.096ZM75.1051 54.832H76.6891V57.532H78.9211V54.832H80.5051V62.5H75.1051V54.832ZM76.6891 58.768V61.216H78.9211V58.768H76.6891ZM86.9601 54.604H93.9321V55.864H86.9601V54.604ZM85.8201 59.332H95.8641V60.616H85.8201V59.332ZM89.9841 60.232H91.5921V65.08H89.9841V60.232ZM93.1161 54.604H94.6881V55.588C94.6881 56.788 94.6881 58.132 94.2561 60.1L92.6841 59.92C93.1161 58.06 93.1161 56.74 93.1161 55.588V54.604ZM104.539 53.956H106.135V65.068H104.539V53.956ZM97.4352 55.012H99.0192V61.912H97.4352V55.012ZM97.4352 60.976H98.4192C100.039 60.976 101.839 60.856 103.675 60.496L103.855 61.816C101.947 62.212 100.111 62.332 98.4192 62.332H97.4352V60.976Z" fill="black"/>
<circle cx="241.25" cy="28" r="12" fill="#B4DBFF"/>
<path d="M238.791 32V31.0483L241.316 28.5732C241.557 28.3293 241.758 28.1127 241.919 27.9233C242.08 27.7339 242.201 27.5504 242.282 27.3729C242.362 27.1953 242.402 27.0059 242.402 26.8047C242.402 26.575 242.35 26.3786 242.246 26.2152C242.142 26.0495 241.999 25.9216 241.816 25.8317C241.634 25.7417 241.427 25.6967 241.195 25.6967C240.956 25.6967 240.746 25.7464 240.566 25.8459C240.386 25.9429 240.247 26.0814 240.147 26.2614C240.05 26.4413 240.002 26.6555 240.002 26.9041H238.748C238.748 26.4425 238.854 26.0412 239.064 25.7003C239.275 25.3594 239.565 25.0954 239.934 24.9084C240.306 24.7214 240.732 24.6278 241.213 24.6278C241.7 24.6278 242.129 24.719 242.498 24.9013C242.868 25.0836 243.154 25.3333 243.358 25.6506C243.564 25.9678 243.667 26.33 243.667 26.7372C243.667 27.0095 243.614 27.277 243.51 27.5398C243.406 27.8026 243.223 28.0937 242.96 28.4134C242.699 28.733 242.334 29.12 241.863 29.5746L240.609 30.8494V30.8991H243.777V32H238.791Z" fill="white"/>
<path d="M237.934 53.956H239.53V59.536H237.934V53.956ZM234.226 54.376H235.966C235.966 57.328 234.262 59.056 230.89 59.788L230.362 58.504C233.146 57.952 234.226 56.728 234.226 55.24V54.376ZM230.998 54.376H234.898V55.648H230.998V54.376ZM235.534 55.336H238.138V56.548H235.534V55.336ZM235.462 57.496H238.078V58.696H235.462V57.496ZM232.186 59.944H239.53V63.004H233.806V64.384H232.21V61.828H237.934V61.192H232.186V59.944ZM232.21 63.712H239.758V64.96H232.21V63.712ZM249.297 53.956H250.809V65.068H249.297V53.956ZM245.637 57.748H247.473V59.044H245.637V57.748ZM247.053 54.136H248.541V64.564H247.053V54.136ZM243.237 55.768H244.437V56.908C244.437 59.404 243.753 61.888 241.989 62.992L241.041 61.816C242.673 60.796 243.237 58.804 243.237 56.908V55.768ZM243.597 55.768H244.785V56.908C244.785 58.756 245.337 60.628 246.945 61.564L246.009 62.728C244.245 61.684 243.597 59.356 243.597 56.908V55.768ZM241.461 55.072H246.417V56.356H241.461V55.072Z" fill="#8F9098"/>
<path d="M86.7021 24.7273V32H85.3846V26.0092H85.342L83.641 27.0959V25.8885L85.4485 24.7273H86.7021Z" fill="white"/>
</svg>
