<svg width="16" height="12" viewBox="0 0 16 12" fill="none" xmlns="http://www.w3.org/2000/svg">
<path fill-rule="evenodd" clip-rule="evenodd" d="M8.32996 2.60798C10.5459 2.60808 12.677 3.45952 14.283 4.98632C14.4039 5.10419 14.5972 5.10271 14.7163 4.98298L15.8723 3.81632C15.9326 3.7556 15.9662 3.67334 15.9657 3.58776C15.9652 3.50218 15.9306 3.42033 15.8696 3.36032C11.6545 -0.679229 5.00473 -0.679229 0.789632 3.36032C0.728573 3.42029 0.693929 3.50211 0.693366 3.58769C0.692803 3.67328 0.726368 3.75555 0.786632 3.81632L1.94297 4.98298C2.06199 5.10289 2.25544 5.10437 2.3763 4.98632C3.98245 3.45942 6.11385 2.60798 8.32996 2.60798ZM8.32996 6.40365C9.54745 6.40358 10.7215 6.85611 11.624 7.67332C11.746 7.7893 11.9383 7.78678 12.0573 7.66765L13.212 6.50098C13.2728 6.43979 13.3065 6.35677 13.3056 6.27051C13.3048 6.18424 13.2693 6.10193 13.2073 6.04198C10.4591 3.4856 6.20316 3.4856 3.45497 6.04198C3.39289 6.10193 3.35747 6.18428 3.35665 6.27058C3.35584 6.35687 3.3897 6.43988 3.45063 6.50098L4.60496 7.66765C4.72395 7.78678 4.91624 7.7893 5.0383 7.67332C5.94017 6.85665 7.11328 6.40416 8.32996 6.40365ZM10.643 8.95747C10.6447 9.04398 10.6107 9.12738 10.549 9.18798L8.55163 11.2037C8.49308 11.2629 8.41326 11.2962 8.32997 11.2962C8.24667 11.2962 8.16685 11.2629 8.1083 11.2037L6.11063 9.18798C6.04892 9.12733 6.01497 9.0439 6.0168 8.9574C6.01863 8.87089 6.05608 8.78897 6.1203 8.73099C7.39587 7.6521 9.26406 7.6521 10.5396 8.73099C10.6038 8.78902 10.6412 8.87096 10.643 8.95747Z" fill="#333333"/>
</svg>
